<?xml version="1.0" encoding="UTF-8" standalone="no"?>
<!DOCTYPE svg PUBLIC "-//W3C//DTD SVG 1.1//EN" "http://www.w3.org/Graphics/SVG/1.1/DTD/svg11.dtd">
<svg width="100%" height="100%" viewBox="0 0 128 128" version="1.1" xmlns="http://www.w3.org/2000/svg" xmlns:xlink="http://www.w3.org/1999/xlink" xml:space="preserve" xmlns:serif="http://www.serif.com/" style="fill-rule:evenodd;clip-rule:evenodd;stroke-linejoin:round;stroke-miterlimit:2;">
    <g transform="matrix(5.333333,0,0,5.333333,-480,-640)">
        <g id="Sticky-Note" serif:id="Sticky Note" transform="matrix(1,0,0,1,90,120)">
            <rect x="0" y="0" width="24" height="24" style="fill:none;"/>
            <g transform="matrix(1,0,0,1,-86.9554,-115.9)">
                <path d="M97.955,120.066L92.789,120.066C92.52,120.066 92.3,120.278 92.289,120.546C92.113,124.903 91.686,128.403 90.937,130.841C90.471,132.363 89.894,133.456 89.148,134.039C88.979,134.17 88.913,134.394 88.983,134.596C89.052,134.798 89.242,134.933 89.455,134.933L92.289,134.933L92.289,136.033C92.289,136.309 92.513,136.533 92.789,136.533L107.455,136.533C107.732,136.533 107.955,136.309 107.955,136.033L107.955,120.554C107.953,120.466 107.928,120.383 107.886,120.312C107.866,120.278 107.842,120.246 107.814,120.217C107.782,120.186 107.748,120.158 107.71,120.136L107.708,120.135C107.635,120.092 107.549,120.067 107.459,120.066L102.155,120.066L102.155,117.9C102.155,117.623 101.932,117.4 101.655,117.4L98.455,117.4C98.179,117.4 97.955,117.623 97.955,117.9L97.955,120.066ZM106.955,130.07C106.855,130.487 106.748,130.879 106.632,131.247C106.076,133.017 105.322,134.228 104.401,134.848C104.319,134.903 104.222,134.933 104.122,134.933L93.289,134.933L93.289,135.533L106.955,135.533L106.955,130.07ZM102.155,121.066L102.155,123.233C102.155,123.509 101.932,123.733 101.655,123.733L98.455,123.733C98.179,123.733 97.955,123.509 97.955,123.233L97.955,121.066L93.268,121.066C93.075,125.309 92.633,128.726 91.893,131.135C91.536,132.298 91.103,133.235 90.601,133.933C90.601,133.933 103.962,133.933 103.962,133.932C104.681,133.384 105.233,132.365 105.678,130.947C106.408,128.623 106.807,125.271 106.941,121.066L102.155,121.066ZM94.455,130.4L100.455,130.4C100.731,130.4 100.955,130.176 100.955,129.9C100.955,129.624 100.731,129.4 100.455,129.4L94.455,129.4C94.179,129.4 93.955,129.624 93.955,129.9C93.955,130.176 94.179,130.4 94.455,130.4ZM94.669,128.4L102.669,128.4C102.945,128.4 103.169,128.176 103.169,127.9C103.169,127.624 102.945,127.4 102.669,127.4L94.669,127.4C94.393,127.4 94.169,127.624 94.169,127.9C94.169,128.176 94.393,128.4 94.669,128.4ZM94.955,126.4L104.955,126.4C105.231,126.4 105.455,126.176 105.455,125.9C105.455,125.624 105.231,125.4 104.955,125.4L94.955,125.4C94.679,125.4 94.455,125.624 94.455,125.9C94.455,126.176 94.679,126.4 94.955,126.4ZM101.155,118.4L101.155,122.733L98.955,122.733L98.955,118.4L101.155,118.4Z"/>
            </g>
        </g>
    </g>
</svg>
