<?xml version="1.0" encoding="UTF-8" standalone="no"?>
<!DOCTYPE svg PUBLIC "-//W3C//DTD SVG 1.1//EN" "http://www.w3.org/Graphics/SVG/1.1/DTD/svg11.dtd">
<svg width="100%" height="100%" viewBox="0 0 512 512" version="1.1" xmlns="http://www.w3.org/2000/svg" xmlns:xlink="http://www.w3.org/1999/xlink" xml:space="preserve" xmlns:serif="http://www.serif.com/" style="fill-rule:evenodd;clip-rule:evenodd;stroke-linecap:round;stroke-linejoin:round;stroke-miterlimit:1.5;">
    <g transform="matrix(1,0,0,1,0,-9.034938)">
        <g transform="matrix(1.303787,0,0,1.888309,-20.456108,-448.380813)">
            <path d="M187.88,278.758L347.032,388.644L187.88,498.531L28.729,388.644L187.88,278.758Z" style="fill:none;stroke:black;stroke-width:12.33px;"/>
        </g>
        <g transform="matrix(0.518373,0,0,0.750774,127.107812,118.669778)">
            <path d="M187.88,278.758L347.032,388.644L187.88,498.531L28.729,388.644L187.88,278.758Z" style="fill:none;stroke:black;stroke-width:31px;"/>
        </g>
        <g transform="matrix(0.552368,0,0,1.003057,23.536859,230.886332)">
            <path d="M243.399,189.232L243.399,168.809L345.404,112.252L382.239,112.252L484.244,168.809L484.244,189.232L382.239,245.788L345.404,245.788L243.399,189.232ZM373.918,145.269C371.529,147.297 370.163,149.547 368.665,151.81L367.678,153.273C366.977,154.313 366.279,155.354 365.584,156.395C363.733,159.165 361.861,161.931 359.993,164.698L358.849,166.396C355.613,171.192 352.308,175.973 348.967,180.747C348.098,181.99 347.231,183.234 346.366,184.478C343.911,188.002 341.445,191.523 338.925,195.033C337.889,196.478 336.863,197.925 335.839,199.372C335.367,200.036 334.889,200.698 334.406,201.359C330.656,206.431 330.656,206.431 330.601,211.841C332.536,214.069 334.888,215.373 338.906,216.445C343.054,216.812 346.212,216.712 350.014,215.697C354.674,213.36 356.576,210.577 358.708,207.376L359.619,206.037C360.269,205.079 360.917,204.12 361.561,203.161C362.946,201.102 364.344,199.046 365.741,196.99L367.938,193.752C371.559,188.415 375.25,183.092 378.952,177.772C380.01,176.249 381.066,174.726 382.121,173.203C387.676,165.181 387.676,165.181 390.268,161.546C390.952,160.586 391.63,159.626 392.306,158.666C393.074,157.579 393.85,156.494 394.639,155.412C396.71,152.459 398.44,149.541 396.431,146.43C394.888,144.61 392.738,143.499 389.502,142.614C383.394,141.45 377.79,142.441 373.918,145.269ZM408.461,148.842C406.044,150.995 405.183,152.845 405.606,155.375C409.065,159.495 416.35,162.751 422.115,165.927L424.206,167.084C426.378,168.286 428.553,169.486 430.728,170.686L435.187,173.152C438.803,175.152 442.421,177.15 446.041,179.147C444.79,180.785 443.082,181.803 440.787,183.035L438.536,184.251L437.334,184.895C436.086,185.564 434.845,186.237 433.606,186.912C430.084,188.83 426.558,190.744 423.009,192.646C420.835,193.811 418.675,194.985 416.525,196.163C415.706,196.609 414.883,197.051 414.053,197.491C408.023,200.678 408.023,200.678 405.337,204.928C405.357,207.01 406.493,208.741 409.061,210.263C412.218,211.764 414.335,212.38 418.427,212.445L420.542,212.497C425.595,212.056 429.228,209.788 432.718,207.85L434.131,207.075C435.661,206.236 437.183,205.393 438.706,204.55L441.906,202.785C444.137,201.554 446.364,200.321 448.589,199.087C451.434,197.509 454.291,195.938 457.151,194.368C459.356,193.155 461.554,191.939 463.749,190.721C464.799,190.14 465.852,189.56 466.907,188.982C468.384,188.173 469.85,187.357 471.313,186.54L472.627,185.827C475.839,184.015 478.158,182.088 478.609,179.505L478.378,178.658L478.193,177.807C476.598,175.221 473.061,173.272 469.634,171.381L468.258,170.611C466.767,169.778 465.271,168.948 463.773,168.119L460.639,166.376C458.454,165.161 456.266,163.948 454.076,162.736C451.274,161.185 448.482,159.629 445.693,158.072C443.54,156.871 441.381,155.674 439.221,154.478C438.189,153.905 437.159,153.332 436.131,152.758C434.693,151.954 433.246,151.155 431.798,150.358L430.526,149.642C427.519,147.999 424.411,146.709 420.191,146.27C415.326,146.304 412.04,146.913 408.461,148.842ZM294.83,150.905L293.416,151.68C291.89,152.518 290.372,153.361 288.856,154.204L285.658,155.97C283.432,157.2 281.21,158.433 278.991,159.668C276.153,161.247 273.303,162.818 270.448,164.387C268.247,165.599 266.053,166.816 263.861,168.034C262.813,168.615 261.763,169.194 260.71,169.772C259.237,170.582 257.775,171.398 256.316,172.215L255.006,172.927C251.802,174.74 249.483,176.67 249.034,179.25L249.264,180.097L249.449,180.948C251.061,183.56 254.646,185.518 258.111,187.424L259.52,188.21C261.045,189.06 262.577,189.906 264.109,190.752L267.311,192.53C269.542,193.769 271.776,195.006 274.013,196.241C276.878,197.825 279.736,199.412 282.592,201.001C284.791,202.224 286.995,203.445 289.2,204.665C290.256,205.25 291.31,205.835 292.363,206.421C293.834,207.239 295.31,208.054 296.787,208.868L298.1,209.601C301.564,211.5 304.012,212.432 308.904,212.474C312.898,212.422 315.116,211.978 318.144,210.459C320.746,208.665 322.126,207.247 322.296,204.934C321.363,202.472 320.081,201.118 316.863,199.358L315.709,198.717C314.46,198.026 313.198,197.344 311.934,196.661C311.061,196.181 310.188,195.701 309.316,195.219C307.029,193.96 304.729,192.708 302.427,191.456C300.075,190.176 297.736,188.89 295.396,187.604C290.809,185.085 286.21,182.574 281.602,180.068C282.837,178.472 284.467,177.451 286.69,176.236L288.832,175.058L291.149,173.796L293.526,172.489C296.46,170.874 299.403,169.265 302.345,167.655C304.833,166.294 307.317,164.931 309.797,163.566C310.958,162.928 312.124,162.293 313.29,161.658L315.439,160.476L317.33,159.442C320.625,157.406 322.128,155.656 322.296,152.9C321.286,150.047 319.085,148.539 314.822,146.914C306.273,145.334 300.65,147.65 294.83,150.905Z"/>
        </g>
        <g transform="matrix(1.20885,-0.488407,0.707373,1.75081,-199.914422,-318.020486)">
            <path d="M185.997,280.058L187.88,278.758L347.032,388.644L187.88,498.531L136.839,463.289" style="fill:none;stroke:black;stroke-width:12.33px;"/>
        </g>
        <g transform="matrix(1,0,0,1,10,6)">
            <path d="M200.954,216.124L201.319,150.973C201.319,150.973 202.665,134.183 220.372,132.303C241.73,130.036 243.102,151 243.102,151L243.389,216.1C243.389,216.1 252.242,268.202 201,267.213C156.591,266.356 164.471,216.1 164.471,216.1C164.471,216.1 162.958,114.471 163.421,78.833C163.742,54.141 173.307,31.3 220.052,31.071C268.104,30.836 277.003,64.007 277.371,78.8C278.022,104.931 278.024,98.321 278.024,98.321" style="fill:none;stroke:black;stroke-width:20px;"/>
        </g>
        <g transform="matrix(2.0625,0,0,2.804912,-235.689864,-612.912328)">
            <ellipse cx="223.122" cy="340.971" rx="3.919" ry="2.51"/>
        </g>
        <g transform="matrix(2.0625,0,0,2.804912,-308.289894,-545.939991)">
            <ellipse cx="223.122" cy="340.971" rx="3.919" ry="2.51"/>
        </g>
        <g transform="matrix(2.0625,0,0,2.804912,-235.689864,-478.967653)">
            <ellipse cx="223.122" cy="340.971" rx="3.919" ry="2.51"/>
        </g>
        <g transform="matrix(2.0625,0,0,2.804912,-162.826022,-545.939991)">
            <ellipse cx="223.122" cy="340.971" rx="3.919" ry="2.51"/>
        </g>
    </g>
</svg>
